<svg width="680" height="280" viewBox="0 0 680 280" xmlns="http://www.w3.org/2000/svg" font-family="Helvetica, Arial, sans-serif">
<defs>
  <marker id="arrowC" viewBox="0 0 10 10" refX="8" refY="5" markerWidth="6" markerHeight="6" orient="auto-start-reverse">
    <path d="M2 1L8 5L2 9" fill="none" stroke="#5F5E5A" stroke-width="1.5" stroke-linecap="round" stroke-linejoin="round"/>
  </marker>
</defs>
<rect width="680" height="280" fill="#ffffff"/>

<rect x="270" y="16" width="140" height="46" rx="9" fill="#F1EFE8" stroke="#5F5E5A" stroke-width="0.5"/>
<text x="340" y="44" text-anchor="middle" font-size="12" font-weight="700" fill="#2C2C2A">Dashboard</text>
<line x1="340" y1="62" x2="340" y2="88" stroke="#5F5E5A" stroke-width="1.5" marker-end="url(#arrowC)"/>

<rect x="60" y="88" width="150" height="46" rx="9" fill="#E6F1FB" stroke="#185FA5" stroke-width="0.5"/>
<text x="135" y="116" text-anchor="middle" font-size="12" font-weight="700" fill="#0C447C">Health check</text>

<rect x="265" y="88" width="150" height="46" rx="9" fill="#E6F1FB" stroke="#185FA5" stroke-width="0.5"/>
<text x="340" y="116" text-anchor="middle" font-size="12" font-weight="700" fill="#0C447C">Job discovery</text>

<rect x="470" y="88" width="150" height="46" rx="9" fill="#E6F1FB" stroke="#185FA5" stroke-width="0.5"/>
<text x="545" y="116" text-anchor="middle" font-size="12" font-weight="700" fill="#0C447C">Resume studio</text>

<line x1="135" y1="134" x2="200" y2="164" stroke="#5F5E5A" stroke-width="1" marker-end="url(#arrowC)"/>
<line x1="340" y1="134" x2="340" y2="164" stroke="#5F5E5A" stroke-width="1" marker-end="url(#arrowC)"/>
<line x1="545" y1="134" x2="480" y2="164" stroke="#5F5E5A" stroke-width="1" marker-end="url(#arrowC)"/>

<rect x="60" y="164" width="150" height="46" rx="9" fill="#E1F5EE" stroke="#0F6E56" stroke-width="0.5"/>
<text x="135" y="192" text-anchor="middle" font-size="12" font-weight="700" fill="#085041">Auto apply</text>

<rect x="265" y="164" width="150" height="46" rx="9" fill="#E1F5EE" stroke="#0F6E56" stroke-width="0.5"/>
<text x="340" y="186" text-anchor="middle" font-size="12" font-weight="700" fill="#085041">LinkedIn outreach</text>
<text x="340" y="200" text-anchor="middle" font-size="10" fill="#0F6E56">+ interview prep</text>

<rect x="470" y="164" width="150" height="46" rx="9" fill="#E1F5EE" stroke="#0F6E56" stroke-width="0.5"/>
<text x="545" y="192" text-anchor="middle" font-size="12" font-weight="700" fill="#085041">Concierge</text>

<line x1="340" y1="210" x2="340" y2="236" stroke="#5F5E5A" stroke-width="1.5" marker-end="url(#arrowC)"/>
<rect x="230" y="236" width="220" height="34" rx="8" fill="#F1EFE8" stroke="#5F5E5A" stroke-width="0.5"/>
<text x="340" y="257" text-anchor="middle" font-size="11" fill="#444441">Application tracker</text>
</svg>
